<svg width="24" height="24" viewBox="0 0 24 24" fill="none" xmlns="http://www.w3.org/2000/svg">
<g clip-path="url(#clip0_1874_34)">
<path d="M23 8.33072V21C23 22.1046 22.1046 23 21 23H3C1.89543 23 1 22.1046 1 21V3C1 1.89543 1.89543 1 3 1H15.6676" stroke="white" stroke-width="2"/>
<path d="M23.582 1.70711C23.9725 1.31658 23.9725 0.683419 23.582 0.292894C23.1915 -0.0976305 22.5583 -0.0976316 22.1678 0.292892L23.582 1.70711ZM8.97729 13.8975C8.97729 14.4498 9.425 14.8975 9.97729 14.8975L18.9773 14.8976C19.5296 14.8976 19.9773 14.4498 19.9773 13.8976C19.9773 13.3453 19.5296 12.8976 18.9773 12.8976L10.9773 12.8975L10.9773 4.89755C10.9773 4.34526 10.5296 3.89755 9.97731 3.89755C9.42502 3.89755 8.9773 4.34526 8.9773 4.89755L8.97729 13.8975ZM22.1678 0.292892L9.27018 13.1904L10.6844 14.6047L23.582 1.70711L22.1678 0.292892Z" fill="white"/>
</g>
<defs>
<clipPath id="clip0_1874_34">
<rect width="24" height="24" fill="white"/>
</clipPath>
</defs>
</svg>
