<svg width="24" height="24" viewBox="0 0 24 24" fill="none" xmlns="http://www.w3.org/2000/svg">
<path d="M21.3994 13.7423C21.3994 15.5695 20.8481 17.3556 19.8153 18.8749C18.7825 20.3941 17.3145 21.5782 15.597 22.2774C13.8795 22.9766 11.9896 23.1596 10.1663 22.8031C8.34303 22.4466 6.66823 21.5668 5.35371 20.2748C4.03919 18.9828 3.14399 17.3367 2.78132 15.5446C2.41864 13.7526 2.60478 11.8951 3.31619 10.207C4.02761 8.51893 5.23234 7.07612 6.77805 6.06101C8.32376 5.04589 10.141 4.50406 12 4.50406M12 4.50406L6.24345 1.01939M12 4.50406L8.53551 10.8284" stroke="white" stroke-width="2" stroke-linecap="round"/>
</svg>
