<svg width="24" height="24" viewBox="0 0 24 24" fill="none" xmlns="http://www.w3.org/2000/svg">
<g clip-path="url(#clip0_1878_11)">
<path d="M1.25 11L1.25 22C1.25 22.5523 1.69772 23 2.25 23L21.75 23C22.3023 23 22.75 22.5523 22.75 22V11" stroke="white" stroke-width="2" stroke-linecap="round"/>
<path d="M12.7071 0.861793C12.3166 0.471269 11.6834 0.471269 11.2929 0.861793L4.92893 7.22575C4.53841 7.61628 4.53841 8.24944 4.92893 8.63997C5.31946 9.03049 5.95262 9.03049 6.34315 8.63997L12 2.98311L17.6569 8.63997C18.0474 9.03049 18.6805 9.03049 19.0711 8.63997C19.4616 8.24944 19.4616 7.61628 19.0711 7.22575L12.7071 0.861793ZM13 17L13 1.5689H11L11 17H13Z" fill="white"/>
</g>
<defs>
<clipPath id="clip0_1878_11">
<rect width="24" height="24" fill="white"/>
</clipPath>
</defs>
</svg>
